# xmcd
#
# Track frame offsets:
#	150
#	3460
#	18501
#	36001
#	56831
#	75067
#	77312
#	94380
#	112631
#	131327
#	148183
#	165920
#	185691
#	202793
#	221032
#
# Disc length: 3196 seconds
#
# Revision: 0
# Processed by: cddbd v1.5.2PL0 Copyright (c) Steve Scherf et al.
# Submitted via: dBpowerAMP V4.0
#
DISCID=b20c7a0f
DTITLE=Leeloojamais - Country Club Music
DYEAR=2007
DGENRE=R&B
TTITLE0=01 Intro
TTITLE1=02 Signal
TTITLE2=03 Let me show you
TTITLE3=04 Ti bi kr takoj
TTITLE4=05 Part of me
TTITLE5=06 Radio Intro
TTITLE6=07 Radio
TTITLE7=08 Over you
TTITLE8=09 S tabo grem naprej
TTITLE9=10 Freak out
TTITLE10=11 Sexy lies
TTITLE11=12 Mi feat. Aleksandra Kovaè
TTITLE12=13 Moj mali svet
TTITLE13=14 Èas je
TTITLE14=15 Better day
EXTD=
EXTT0=
EXTT1=
EXTT2=
EXTT3=
EXTT4=
EXTT5=
EXTT6=
EXTT7=
EXTT8=
EXTT9=
EXTT10=
EXTT11=
EXTT12=
EXTT13=
EXTT14=
PLAYORDER=
